#!OML:ASF E:\Steps\Project 1\Capture day 1\Session 2\Subject.ASF
:FULLY-SPECIFIED
:DEGREES
267
root 9.96572 17.9033 8.88402 -148.399 -51.693 -182.966
lowerback -24.2941 3.00199 -4.83699
upperback -3.50439 4.84553 -0.763485
thorax 9.27939 1.96563 3.40393
lowerneck -1.65039 6.76997 3.50436
upperneck -7.50188 8.77896 -2.74862
head -1.78539 4.28125 -1.51865
rclavicle -6.66923e-014 3.93594e-014
rhumerus -28.8906 20.1419 -80.7297
rradius 67.7093
rwrist -8.76763
rhand -9.39804 -47.8689
rfingers 7.12502
rthumb 16.5633 -77.1821
lclavicle -6.66923e-014 3.93594e-014
lhumerus -34.2255 -36.5786 87.6909
lradius 64.5699
lwrist -0.0202361
lhand -29.1595 -21.461
lfingers 7.12502
lthumb -2.50576 8.50399
rfemur -34.9711 -7.19172 24.999
rtibia 23.2538
rfoot 12.4821 -22.7863
rtoes -44.5172
lfemur -45.885 -10.3877 -12.8763
ltibia 20.0853
lfoot 39.8214 -1.75706
ltoes -8.18414
268
root 9.91904 18.2972 8.83177 -147.69 -54.5046 -183.83
lowerback -25.2922 2.53649 -4.88717
upperback -3.56932 4.28077 -0.738463
thorax 9.77109 1.66694 3.34296
lowerneck -1.2501 6.85021 3.20811
upperneck -7.51307 8.91757 -2.59659
head -1.87371 4.36142 -1.44165
rclavicle -4.51738e-014 -5.60573e-014
rhumerus -29.9041 19.4337 -81.3295
rradius 66.7796
rwrist -8.23774
rhand -9.753 -48.4835
rfingers 7.12502
rthumb 16.2215 -77.8248
lclavicle -4.51738e-014 -5.60573e-014
lhumerus -33.8829 -35.889 88.3627
lradius 63.8867
lwrist 0.361204
lhand -29.2673 -21.3271
lfingers 7.12502
lthumb -2.60988 8.63665
rfemur -32.0099 -3.42665 22.6298
rtibia 17.6812
rfoot 17.152 -26.346
rtoes -37.1548
lfemur -43.7675 -9.89044 -14.062
ltibia 15.3493
lfoot 41.4753 -0.692612
ltoes -15.8107
269
root 9.8671 18.6748 8.78525 -146.897 -57.6649 -184.672
lowerback -26.1769 2.02615 -4.75838
upperback -3.76724 3.58131 -0.644052
thorax 10.0682 1.31902 3.18698
lowerneck -0.753668 6.86866 2.75438
upperneck -7.53885 8.97664 -2.37367
head -1.99707 4.40471 -1.32259
rclavicle -6.80837e-015 3.4191e-014
rhumerus -31.2529 18.9878 -81.9268
rradius 66.0624
rwrist -7.65594
rhand -15.1641 -49.604
rfingers 7.12502
rthumb 11.0065 -79.2954
lclavicle -6.80837e-015 3.4191e-014
lhumerus -33.7841 -35.1628 89.2272
lradius 63.1811
lwrist 0.385427
lhand -28.6924 -21.986
lfingers 7.12502
lthumb -2.05466 7.98386
rfemur -29.0655 2.02961 19.9891
rtibia 12.1826
rfoot 18.3563 -32.1201
rtoes -24.126
lfemur -42.3963 -9.17038 -15.35
ltibia 12.5838
lfoot 39.9687 -0.705142
ltoes -25.0173
270
root 9.81432 19.0231 8.75569 -145.499 -61.5005 -185.367
lowerback -27.5522 1.44536 -4.05301
upperback -4.215 2.61023 -0.615862
thorax 10.3797 0.856706 2.52526
lowerneck -0.13609 6.78025 2.33088
upperneck -7.66413 8.89107 -2.13416
head -2.17887 4.37317 -1.21133
rclavicle 3.23025e-014 -1.39149e-014
rhumerus -32.6822 18.6118 -82.7378
rradius 65.4343
rwrist -6.96231
rhand -13.8401 -49.6103
rfingers 7.12502
rthumb 12.2833 -79.2296
lclavicle 3.23025e-014 -1.39149e-014
lhumerus -33.923 -34.6133 89.8686
lradius 62.6758
lwrist 0.385826
lhand -27.8878 -22.57
lfingers 7.12502
lthumb -1.27753 7.40593
rfemur -27.4597 8.14059 17.4906
rtibia 7.81404
rfoot 14.963 -38.5012
rtoes -6.3552
lfemur -42.7597 -8.67383 -16.0832
ltibia 11.846
lfoot 36.0761 -1.19327
ltoes -33.0263
271
root 9.76643 19.3546 8.73664 -143.845 -65.3736 -186.314
lowerback -28.7636 0.952698 -3.26079
upperback -4.67612 1.72373 -0.728425
thorax 10.5584 0.447177 1.646
lowerneck 0.448499 6.6399 2.14028
upperneck -7.73881 8.73501 -1.92289
head -2.32944 4.3003 -1.14162
rclavicle -6.48783e-014 4.1546e-014
rhumerus -34.0679 18.2088 -83.6608
rradius 64.8952
rwrist -6.48112
rhand -12.3969 -49.4488
rfingers 7.12502
rthumb 13.6745 -78.9796
lclavicle -6.48783e-014 4.1546e-014
lhumerus -34.0268 -34.6287 90.409
lradius 62.2346
lwrist 0.716261
lhand -27.4855 -22.5617
lfingers 7.12502
lthumb -0.889017 7.41619
rfemur -27.4945 8.43648 16.9338
rtibia 6.64428
rfoot 15.7648 -35.412
rtoes -5.63127
lfemur -43.4079 -8.40192 -16.6249
ltibia 11.75
lfoot 31.3707 -1.36958
ltoes -41.414
272
root 9.72853 19.6645 8.72688 -140.936 -68.9767 -188.517
lowerback -29.9763 0.390176 -3.06444
upperback -5.07996 0.926445 -0.836092
thorax 10.7452 0.0606176 1.12296
lowerneck 0.874624 6.56468 2.0765
upperneck -7.62132 8.66487 -1.73532
head -2.37998 4.26823 -1.08711
rclavicle -1.76918e-014 1.19271e-015
rhumerus -35.3423 17.6081 -84.3505
rradius 64.4897
rwrist -5.85166
rhand -11.6742 -48.9383
rfingers 7.12502
rthumb 14.3709 -78.4208
lclavicle -1.76918e-014 1.19271e-015
lhumerus -34.0616 -34.9371 91.2175
lradius 61.8356
lwrist 1.22795
lhand -27.439 -22.5369
lfingers 7.12502
lthumb -0.844088 7.44114
rfemur -28.1228 5.39938 17.4385
rtibia 6.54133
rfoot 19.1167 -28.4738
rtoes -21.748
lfemur -44.1073 -8.20332 -17.61
ltibia 11.7428
lfoot 28.1878 -0.868237
ltoes -46.4133
273
root 9.69389 19.9575 8.72693 -137.304 -72.4188 -191.488
lowerback -31.3914 -0.320767 -3.14102
upperback -4.94053 0.0161364 -0.585352
thorax 10.8064 -0.384379 1.01924
lowerneck 1.14629 6.63414 1.92851
upperneck -7.31399 8.78199 -1.54565
head -2.34004 4.33268 -1.00874
rclavicle -3.1731e-014 2.24627e-014
rhumerus -36.5222 16.7464 -84.6375
rradius 64.1941
rwrist -4.91048
rhand -8.47874 -47.0272
rfingers 7.12502
rthumb 17.4481 -76.2642
lclavicle -3.1731e-014 2.24627e-014
lhumerus -34.0033 -34.775 92.2768
lradius 61.5304
lwrist 1.48332
lhand -27.1092 -22.9317
lfingers 7.12502
lthumb -0.525554 7.04737
rfemur -28.5615 3.79952 17.9003
rtibia 6.25318
rfoot 16.7453 -27.3993
rtoes -24.6839
lfemur -44.6793 -7.76404 -18.8228
ltibia 11.9199
lfoot 27.1696 0.327749
ltoes -46.2372
274
root 9.66549 20.239 8.73641 -133.938 -75.705 -194.539
lowerback -32.1416 -0.887922 -2.94888
upperback -5.10998 -0.810725 -0.275637
thorax 10.9592 -0.770212 0.925823
lowerneck 1.42295 6.85649 1.76809
upperneck -6.95053 9.10103 -1.3722
head -2.27956 4.49867 -0.936135
rclavicle 8.00108e-015 -3.27995e-014
rhumerus -37.7467 17.5324 -84.9918
rradius 64.224
rwrist -5.76243
rhand -9.00961 -46.591
rfingers 7.12502
rthumb 16.9372 -75.8725
lclavicle 8.00108e-015 -3.27995e-014
lhumerus -33.7735 -34.5836 93.266
lradius 61.2455
lwrist 1.71666
lhand -26.5328 -23.6133
lfingers 7.12502
lthumb 0.0311832 6.36646
rfemur -28.7168 1.84972 19.0126
rtibia 6.23957
rfoot 17.1754 -24.9833
rtoes -29.0685
lfemur -44.8129 -6.98693 -19.8654
ltibia 12.311
lfoot 26.6603 2.20684
ltoes -44.025
275
root 9.65145 20.5089 8.74821 -130.543 -78.6223 -197.967
lowerback -32.2922 -1.13513 -2.74073
upperback -5.20024 -1.21428 -0.0504999
thorax 10.938 -0.946229 0.899621
lowerneck 1.43392 7.10801 1.67128
upperneck -6.48435 9.45443 -1.16241
head -2.13736 4.67876 -0.848259
rclavicle -1.27471e-014 -4.57205e-015
rhumerus -38.7399 15.9592 -85.0004
rradius 64.1017
rwrist -4.86405
rhand -8.51283 -45.6486
rfingers 7.12502
rthumb 17.4153 -74.8884
lclavicle -1.27471e-014 -4.57205e-015
lhumerus -33.3227 -34.9062 94.2931
lradius 60.9435
lwrist 1.88361
lhand -26.1334 -24.0452
lfingers 7.12502
lthumb 0.416914 5.93418
rfemur -29.6183 -2.71169 21.1712
rtibia 8.26678
rfoot 19.8034 -18.7717
rtoes -34.4014
lfemur -44.5827 -6.09955 -20.648
ltibia 12.8564
lfoot 25.9305 4.09448
ltoes -43.8108
276
root 9.6496 20.7675 8.75655 -126.797 -81.271 -201.971
lowerback -32.0352 -1.14791 -2.46098
upperback -5.20303 -1.3306 0.16819
thorax 10.8387 -0.979193 0.945362
lowerneck 1.07873 7.25765 1.88699
upperneck -5.88931 9.66777 -0.967672
head -1.87646 4.78246 -0.790869
rclavicle 3.844e-014 1.21259e-014
rhumerus -39.3862 16.5823 -85.0194
rradius 63.7893
rwrist -6.00551
rhand -7.43016 -45.3629
rfingers 7.12502
rthumb 18.4571 -74.5072
lclavicle 3.844e-014 1.21259e-014
lhumerus -32.7484 -35.3894 95.2992
lradius 60.7058
lwrist 1.76449
lhand -25.9909 -24.3246
lfingers 7.12502
lthumb 0.554573 5.65438
rfemur -30.5158 -6.45046 23.1579
rtibia 10.629
rfoot 22.1811 -12.409
rtoes -39.1754
lfemur -44.1679 -5.48735 -20.8839
ltibia 13.5333
lfoot 25.2036 6.02873
ltoes -44.6289
277
root 9.65822 21.0165 8.76246 -122.369 -83.7559 -206.898
lowerback -31.1647 -0.914593 -1.73061
upperback -5.64997 -1.25815 0.113221
thorax 10.7523 -0.910496 0.59019
lowerneck 0.980726 7.28687 1.27766
upperneck -5.65938 9.71299 -0.520186
head -1.8372 4.81102 -0.548149
rclavicle -5.8393e-015 -9.93923e-015
rhumerus -39.9656 14.8445 -85.0953
rradius 63.2778
rwrist -5.49579
rhand -6.11204 -45.1264
rfingers 7.12502
rthumb 19.7246 -74.1457
lclavicle -5.8393e-015 -9.93923e-015
lhumerus -32.28 -36.1153 96.0692
lradius 60.3056
lwrist 1.53403
lhand -26.1378 -24.4354
lfingers 7.12502
lthumb 0.412622 5.54395
rfemur -29.6774 -2.55978 22.4333
rtibia 10.5505
rfoot 21.9135 -15.5587
rtoes -34.0613
lfemur -43.5763 -5.03717 -20.6308
ltibia 14.3143
lfoot 24.6439 7.71145
ltoes -45.0475
